<?xml version="1.0" encoding="utf-8"?>
<!-- Generator: Adobe Illustrator 22.1.0, SVG Export Plug-In . SVG Version: 6.00 Build 0)  -->
<svg version="1.1" id="Layer_1" xmlns:svgjs="http://svgjs.com/svgjs"
	 xmlns="http://www.w3.org/2000/svg" xmlns:xlink="http://www.w3.org/1999/xlink" x="0px" y="0px" viewBox="0 0 3288 2536"
	 style="enable-background:new 0 0 3288 2536;" xml:space="preserve">
<style type="text/css">
	.st0{fill:#FFFFFF;}
</style>
<g>
	<g>
		<path class="st0" d="M184.3,2519.9c-93.6,0-169.7-76.1-169.7-169.7V2134c0-33.9,27.6-61.6,61.6-61.6h100.6V295.9
			c0.1-74.2,29-143.9,81.5-196.3c52.4-52.4,122.2-81.4,196.3-81.5h2378.7c74.2,0.1,143.9,29,196.3,81.5
			c52.4,52.4,81.4,122.2,81.5,196.3v1776.5h100.6c33.9,0,61.6,27.6,61.6,61.6v216.2c0,93.6-76.1,169.7-169.7,169.7H184.3z
			 M137.8,2350.2c0,25.7,20.9,46.6,46.6,46.6h2919.3c25.7,0,46.6-20.9,46.6-46.6v-154.7H1975.7c-3.9,90.1-78.5,162.2-169.5,162.2
			h-324.4c-91.1,0-165.6-72.1-169.5-162.2H137.8V2350.2z M1435.9,2195.6c3.6,22.1,22.8,39.1,46,39.1h324.4c23.1,0,42.4-16.9,46-39.1
			H1435.9z M2988,2072.4V295.9c0-85.3-69.4-154.7-154.7-154.7H454.6c-85.3,0-154.7,69.4-154.7,154.7v1776.5H2988z"/>
		<path class="st0" d="M2833.4,25.6c149.2,0.2,270.1,121.1,270.3,270.3v1784h108.1c29.9,0,54.1,24.2,54.1,54.1v216.2
			c0,89.6-72.6,162.2-162.2,162.2H184.3c-89.6,0-162.2-72.6-162.2-162.2V2134c0-29.9,24.2-54.1,54.1-54.1h108.1v-1784
			c0.2-149.2,121.1-270.1,270.3-270.3H2833.4 M292.5,2079.9h2703.1v-1784c0-89.6-72.6-162.2-162.2-162.2H454.6
			c-89.6,0-162.2,72.6-162.2,162.2V2079.9 M1481.8,2350.2c-89.6,0-162.2-72.6-162.2-162.2H130.3v162.2c0,29.9,24.2,54.1,54.1,54.1
			h2919.3c29.9,0,54.1-24.2,54.1-54.1v-162.2H1968.4c0,89.6-72.6,162.2-162.2,162.2H1481.8 M1481.8,2242.1h324.4
			c29.9,0,54.1-24.2,54.1-54.1h-432.5C1427.8,2217.9,1452,2242.1,1481.8,2242.1 M2833.4,10.6L2833.4,10.6L2833.4,10.6H454.6
			c-38.5,0-75.9,7.6-111,22.5c-34,14.4-64.5,35-90.6,61.1s-46.8,56.7-61.1,90.6c-14.9,35.2-22.5,72.5-22.5,111v1769.1H76.2
			c-38.1,0-69.1,31-69.1,69.1v216.2c0,23.9,4.7,47.1,13.9,69c8.9,21.1,21.7,40,38,56.3c16.3,16.3,35.2,29,56.3,38
			c21.9,9.2,45.1,13.9,69,13.9h2919.3c23.9,0,47.1-4.7,69-13.9c21.1-8.9,40-21.7,56.3-38c16.3-16.3,29-35.2,38-56.3
			c9.2-21.9,13.9-45.1,13.9-69V2134c0-38.1-31-69.1-69.1-69.1h-93.1v-1769c0-38.5-7.6-75.9-22.5-111c-14.4-34-35-64.5-61.1-90.6
			s-56.7-46.8-90.6-61.1C2909.2,18.2,2871.9,10.6,2833.4,10.6L2833.4,10.6z M307.5,2064.9v-1769c0-81.2,66-147.2,147.2-147.2h2378.7
			c81.2,0,147.2,66,147.2,147.2v1769H307.5L307.5,2064.9z M1982.7,2203.1h1160v147.2c0,21.5-17.5,39.1-39.1,39.1H184.3
			c-21.5,0-39.1-17.5-39.1-39.1v-147.2h1160c1.6,18.6,6,36.7,13.3,54c8.9,21.1,21.7,40,38,56.3c16.3,16.3,35.2,29,56.3,38
			c21.9,9.2,45.1,13.9,69,13.9h324.4c23.9,0,47.1-4.7,69-13.9c21.1-8.9,40-21.7,56.3-38c16.3-16.3,29-35.2,38-56.3
			C1976.7,2239.8,1981.2,2221.7,1982.7,2203.1L1982.7,2203.1z M1445.7,2203.1h396.5c-5.9,14.1-19.8,24.1-36.1,24.1h-324.4
			C1465.6,2227.1,1451.6,2217.2,1445.7,2203.1L1445.7,2203.1z"/>
	</g>
	<g>
		<path class="st0" d="M1211.5,1871.2c-33.9,0-61.6-27.6-61.6-61.5v-262.8H887.1c-93.6,0-169.7-76.1-169.7-169.7v-865
			c0-93.6,76.1-169.7,169.7-169.7h1513.7c93.6,0,169.7,76.1,169.7,169.7v865c0,93.6-76.1,169.7-169.7,169.7h-839.5L1255,1853.1
			C1243.4,1864.8,1228,1871.2,1211.5,1871.2L1211.5,1871.2z M887.1,465.6c-25.7,0-46.6,20.9-46.6,46.6v865
			c0,25.7,20.9,46.6,46.6,46.6h324.4c33.9,0,61.6,27.6,61.6,61.6V1661l219.3-219.3c11.6-11.6,27.1-18,43.5-18h865
			c25.7,0,46.6-20.9,46.6-46.6v-865c0-25.7-20.9-46.6-46.6-46.6H887.1z"/>
		<path class="st0" d="M2400.9,349.9c89.6,0,162.2,72.6,162.2,162.2v865c0,89.6-72.6,162.2-162.2,162.2h-842.6l-308.5,308.5
			c-10.1,10.1-23.9,15.8-38.2,15.8c0,0,0,0,0,0c-29.9,0-54.1-24.2-54.1-54.1v-270.3H887.1c-89.6,0-162.2-72.6-162.2-162.2v-865
			c0-89.6,72.6-162.2,162.2-162.2H2400.9 M887.1,1431.2h324.4c29.9,0,54.1,24.2,54.1,54.1v193.9l232.1-232.1
			c10.1-10.1,23.9-15.8,38.2-15.8h865c29.9,0,54.1-24.2,54.1-54.1v-865c0-29.9-24.2-54.1-54.1-54.1H887.1
			c-29.9,0-54.1,24.2-54.1,54.1v865C833.1,1407,857.3,1431.2,887.1,1431.2 M2400.9,334.9H887.1c-23.9,0-47.1,4.7-69,13.9
			c-21.1,8.9-40,21.7-56.3,38c-16.3,16.3-29,35.2-38,56.3c-9.2,21.9-13.9,45.1-13.9,69v865c0,23.9,4.7,47.1,13.9,69
			c8.9,21.1,21.7,40,38,56.3c16.3,16.3,35.2,29,56.3,38c21.9,9.2,45.1,13.9,69,13.9h255.3v255.3c0,38.1,31,69.1,69.1,69.1
			c18.5,0,35.8-7.2,48.8-20.2l304.1-304.1h836.4c23.9,0,47.1-4.7,69-13.9c21.1-8.9,40-21.7,56.3-38c16.3-16.3,29-35.2,38-56.3
			c9.2-21.9,13.9-45.1,13.9-69v-865c0-23.9-4.7-47.1-13.9-69c-8.9-21.1-21.7-40-38-56.3c-16.3-16.3-35.2-29-56.3-38
			C2448,339.6,2424.8,334.9,2400.9,334.9L2400.9,334.9z M887.1,1416.2c-21.5,0-39.1-17.5-39.1-39.1v-865c0-21.5,17.5-39.1,39.1-39.1
			h1513.7c21.5,0,39.1,17.5,39.1,39.1v865c0,21.5-17.5,39.1-39.1,39.1h-865c-18.4,0-35.8,7.2-48.8,20.2l-206.5,206.5v-157.7
			c0-38.1-31-69.1-69.1-69.1H887.1L887.1,1416.2z"/>
	</g>
	<g>
		<rect x="1041.8" y="666.8" class="st0" width="1204.4" height="123.1"/>
		<path class="st0" d="M2238.7,674.3v108.1H1049.3V674.3H2238.7 M2253.7,659.3h-15H1049.3h-15v15v108.1v15h15h1189.4h15v-15V674.3
			V659.3L2253.7,659.3z"/>
	</g>
	<g>
		<rect x="1041.8" y="883.1" class="st0" width="1204.4" height="123.1"/>
		<path class="st0" d="M2238.7,890.6v108.1H1049.3V890.6H2238.7 M2253.7,875.6h-15H1049.3h-15v15v108.1v15h15h1189.4h15v-15V890.6
			V875.6L2253.7,875.6z"/>
	</g>
	<g>
		<rect x="1041.8" y="1099.3" class="st0" width="1204.4" height="123.1"/>
		<path class="st0" d="M2238.7,1106.8v108.1H1049.3v-108.1H2238.7 M2253.7,1091.8h-15H1049.3h-15v15v108.1v15h15h1189.4h15v-15
			v-108.1V1091.8L2253.7,1091.8z"/>
	</g>
</g>
</svg>
