<?xml version="1.0" encoding="utf-8"?>
<!-- Generator: Adobe Illustrator 25.2.3, SVG Export Plug-In . SVG Version: 6.00 Build 0)  -->
<svg version="1.1" id="Layer_1" xmlns="http://www.w3.org/2000/svg" xmlns:xlink="http://www.w3.org/1999/xlink" x="0px" y="0px"
	 viewBox="0 0 300 45" style="enable-background:new 0 0 300 45;" xml:space="preserve">
<style type="text/css">
	.st0{fill:#FFC02A;}
</style>
<g transform="translate(0.000000,45.000000) scale(0.100000,-0.100000)">
	<path d="M1022,427c-123-45-177-188-117-307c15-30,41-60,63-75c67-44,166-50,234-14c23,12,25,16,13,32c-13,17-15,18-46,2
		c-42-22-129-16-166,11c-50,37-67,70-71,137c-3,53,0,67,20,97c51,75,148,103,222,65c26-14,31-14,44-1c21,20,8,33-50,51
		C1108,443,1068,443,1022,427z"/>
	<path d="M1718,423c-51-32-63-101-26-148c12-15,49-40,84-55c44-20,67-37,78-59c21-39,20-53-4-83c-37-48-106-42-138,12
		c-17,26-21,28-37,16c-18-13-18-14,1-47c14-24,31-37,61-45c105-31,199,48,173,145c-12,45-27,60-100,96c-72,36-90,53-90,85
		c0,55,64,78,113,40c26-21,57-18,57,5c0,22-64,55-106,55C1762,440,1733,432,1718,423z"/>
	<path class="st0" d="M2715,433c-59-15-119-79-141-151c-20-68-5-135,44-193c77-90,190-102,290-29c50,36,72,76,79,145
		c10,93-38,178-122,216C2827,439,2759,444,2715,433z M2828,418c31-8,59-25,88-53c80-81,79-197-3-279c-122-121-333-28-333,147
		c0,70,66,156,142,184C2765,432,2772,432,2828,418z"/>
	<path class="st0" d="M2740,346c0-52-2-56-37-83c-21-15-40-29-43-31c-2-2,14-19,38-38c40-34,42-38,42-90V50l70,51
		c76,55,86,78,48,109l-23,19l23,16c46,33,29,59-90,138l-28,19V346z M2860,281c0-13-27-40-42-41c-3,0-20,12-37,26c-23,19-31,34-31,58
		c0,18,3,35,6,39C2765,372,2860,298,2860,281z M2776,247l27-24l-31-21l-31-22l-28,24l-28,24l25,21C2742,275,2743,275,2776,247z
		 M2848,198c22-22,12-43-36-75c-26-18-51-33-55-33s-7,18-7,39c0,31,6,44,28,60C2809,212,2831,215,2848,198z"/>
	<path d="M0,220V10h53c90,1,139,15,169,49c44,49,35,133-18,161l-23,13l24,29c16,19,25,42,25,64c0,76-42,104-155,104H0V220z M158,374
		c16-11,22-25,22-54c0-49-27-70-87-70H50v70v70h43C116,390,146,383,158,374z M175,185c31-30,33-77,5-105c-15-15-33-20-75-20H50v75
		v75h50C141,210,156,205,175,185z"/>
	<path d="M327,424c-4-4-7-16-7-26c0-16,10-18,106-18c104,0,105,0,102,23c-3,21-8,22-98,25C377,429,331,428,327,424z"/>
	<path d="M632,223l3-208h100c96,0,100,1,103,23c3,21,1,22-77,22h-81v185v185h-25h-25L632,223z"/>
	<path d="M1355,225c-49-113-86-207-83-211c4-3,15-3,26,0c15,5,38,50,84,161c34,85,66,155,69,155s34-70,69-155s67-155,71-155
		s14-3,23-6c25-10,20,15-28,122c-24,55-62,143-86,197c-23,53-45,97-49,97S1404,338,1355,225z"/>
	<path d="M1990,220c0-203,1-210,20-210s20,7,20,210s-1,210-20,210S1990,423,1990,220z"/>
	<path d="M2250,350v-80h-86c-83,0-85-1-82-22c3-22,8-23,90-26l86-3l-1-102c-2-99-1-102,21-105l22-3v210v211h-25
		C2250,430,2250,429,2250,350z"/>
	<path d="M327,244c-4-4-7-16-7-26c0-16,10-18,106-18c104,0,105,0,102,23c-3,21-8,22-98,25C377,249,331,248,327,244z"/>
	<path d="M328,35c4-26,5-26,101-23c91,3,96,4,99,26s2,22-101,22H323L328,35z"/>
</g>
</svg>
