<?xml version="1.0" standalone="no"?>
<!DOCTYPE svg PUBLIC "-//W3C//DTD SVG 20010904//EN"
 "http://www.w3.org/TR/2001/REC-SVG-20010904/DTD/svg10.dtd">
<svg version="1.0" xmlns="http://www.w3.org/2000/svg"
 width="449.000000pt" height="67.000000pt" viewBox="0 0 449.000000 67.000000"
 preserveAspectRatio="xMidYMid meet">
<metadata>
Created by potrace 1.16, written by Peter Selinger 2001-2019
</metadata>
<g transform="translate(0.000000,67.000000) scale(0.100000,-0.100000)"
fill="#000000" stroke="none">
<path d="M2154 648 c-3 -12 -67 -159 -140 -327 -74 -167 -133 -305 -131 -306
1 -1 23 0 48 3 l45 4 95 229 c52 126 97 229 100 229 3 0 49 -102 101 -227 l95
-228 44 -6 c24 -4 45 -5 47 -4 6 5 -281 655 -289 655 -4 0 -11 -10 -15 -22z"/>
<path d="M1533 642 c-176 -63 -263 -237 -208 -418 51 -169 248 -264 424 -204
36 12 73 27 82 34 17 11 16 14 -7 43 l-25 32 -52 -24 c-129 -61 -279 -5 -333
124 -23 53 -21 147 3 201 28 63 88 118 147 135 70 21 108 19 183 -11 l66 -27
18 24 c10 13 19 29 19 35 0 6 -27 23 -61 38 -81 37 -184 44 -256 18z"/>
<path d="M2558 627 c-72 -55 -86 -142 -35 -218 16 -24 51 -48 122 -84 106 -53
145 -92 145 -146 0 -60 -85 -118 -151 -104 -31 7 -89 73 -89 102 0 10 -9 9
-40 -7 -22 -11 -40 -24 -40 -28 0 -22 63 -103 91 -117 69 -36 186 -28 243 16
39 31 66 91 66 148 0 101 -29 137 -156 197 -50 23 -101 52 -113 65 -49 52 -9
139 64 139 26 0 45 -9 73 -34 l38 -35 32 21 c18 11 32 22 32 25 0 17 -27 46
-64 68 -34 20 -56 25 -109 25 -59 0 -70 -3 -109 -33z"/>
<path d="M0 335 l0 -317 139 4 c123 3 143 6 168 24 93 69 98 232 9 285 l-35
20 31 28 c27 24 32 36 36 88 5 75 -15 124 -66 155 -31 19 -54 23 -159 26
l-123 4 0 -317z m190 234 c56 -12 80 -42 80 -99 0 -45 -47 -90 -93 -90 -19 0
-49 -3 -66 -6 l-31 -6 0 106 0 106 30 0 c16 0 52 -5 80 -11z m45 -274 c37 -18
55 -51 55 -101 0 -73 -45 -104 -150 -104 l-60 0 0 110 0 110 61 0 c34 0 75 -7
94 -15z"/>
<path d="M940 335 l0 -315 160 0 160 0 0 40 0 40 -120 0 -120 0 0 275 0 275
-40 0 -40 0 0 -315z"/>
<path d="M2960 335 l0 -315 45 0 45 0 0 315 0 315 -45 0 -45 0 0 -315z"/>
<path d="M3370 530 l0 -120 -130 0 -130 0 0 -40 0 -40 130 0 130 0 0 -155 0
-155 40 0 40 0 0 315 0 315 -40 0 -40 0 0 -120z"/>
<path d="M480 600 l0 -40 160 0 160 0 0 40 0 40 -160 0 -160 0 0 -40z"/>
<path d="M480 330 l0 -40 160 0 160 0 0 40 0 40 -160 0 -160 0 0 -40z"/>
<path d="M480 54 l0 -42 160 1 160 1 0 40 0 41 -160 0 -160 0 0 -41z"/>
</g>
</svg>
