<?xml version="1.0" encoding="utf-8"?>
<!-- Generator: Adobe Illustrator 25.2.3, SVG Export Plug-In . SVG Version: 6.00 Build 0)  -->
<svg version="1.1" id="Layer_1" xmlns="http://www.w3.org/2000/svg" xmlns:xlink="http://www.w3.org/1999/xlink" x="0px" y="0px"
	 viewBox="0 0 1000 514" style="enable-background:new 0 0 1000 514;" xml:space="preserve">
<style type="text/css">
	.st0{clip-path:url(#SVGID_2_);fill:url(#SVGID_3_);}
	.st1{fill:url(#SVGID_4_);}
	.st2{fill:#001B58;}
	.st3{fill:url(#SVGID_5_);}
	.st4{fill:url(#SVGID_7_);}
	.st5{fill:url(#SVGID_8_);}
	.st6{fill:url(#SVGID_9_);}
</style>
<g>
	<g>
		<defs>
			<path id="SVGID_1_" d="M660.1,479.9h152.5c63.4-64.3,88.4-93.2,87.6-150.1c-0.1-17.7-2.1-30.2-13.5-45.2
				c-3.9-5.2-8.6-10.7-14.3-16.8C870.9,269.5,782.7,357.5,660.1,479.9"/>
		</defs>
		<clipPath id="SVGID_2_">
			<use xlink:href="#SVGID_1_"  style="overflow:visible;"/>
		</clipPath>
		
			<linearGradient id="SVGID_3_" gradientUnits="userSpaceOnUse" x1="-133.7635" y1="-206.4037" x2="-130.4488" y2="-206.4037" gradientTransform="matrix(298.0742 0 0 298.0742 39799.5742 61897.4766)">
			<stop  offset="0" style="stop-color:#DCD5CF"/>
			<stop  offset="5.000310e-02" style="stop-color:#DCD5CF"/>
			<stop  offset="1" style="stop-color:#DCD5CF"/>
		</linearGradient>
		<rect x="660.1" y="267.8" class="st0" width="240.9" height="212.1"/>
	</g>
</g>
<g>
	<g>
		
			<linearGradient id="SVGID_4_" gradientUnits="userSpaceOnUse" x1="346.1447" y1="634.1448" x2="914.0583" y2="304.8874" gradientTransform="matrix(1 0 0 -1 0 530)">
			<stop  offset="0" style="stop-color:#3E0000"/>
			<stop  offset="0.8" style="stop-color:#3E0000"/>
			<stop  offset="0.8452" style="stop-color:#510015"/>
			<stop  offset="0.938" style="stop-color:#80004A"/>
			<stop  offset="0.95" style="stop-color:#870051"/>
			<stop  offset="1" style="stop-color:#870051"/>
		</linearGradient>
		<path id="SVGID_6_" class="st1" d="M652.8,49.9C777.6,175,868.1,265.8,869.7,267.5c5.7,6.1,10.4,11.6,14.4,16.8
			c11.4,15,16.1,27.6,16.2,45.3V205.3c0.8-58-27.7-88.1-94.3-155.3H652.8V49.9z"/>
	</g>
</g>
<g>
	<path class="st2" d="M565.5,262.6v-0.4c9.4-4.5,13.2-12.7,13.2-22c0-15.2-12.2-25.6-32.4-25.6h-50.9v98.5h53.5
		c22,0,34.6-11.9,34.6-27.6C583.5,274.5,578.5,267.4,565.5,262.6 M548.3,298.4h-36.6v-69.7h32.8c11.6,0,17.2,4,17.2,13.3
		c0,10.1-8.4,14.1-17.8,14.1h-26.3c0,7.7,4.2,14.6,12,14.6H547c10.9,0,19.7,5.9,19.7,13.7C566.7,293.6,559,298.4,548.3,298.4
		 M325.4,212c-30,0-51.2,23-51.2,52s21.2,52,51.2,52c9.5,0,18.2-2.3,25.6-6.4l3.3,3.4c3,2.9,6.5,4.6,10.7,4.6
		c4.7,0,9.1-2.2,10.8-4.5l-12.9-13c8.6-9.3,13.6-22,13.6-36.1C376.6,235,355.4,212,325.4,212 M351.4,288.4l-8.6-8.7
		c-2.9-2.9-6.5-3.9-10-3.9c-3.4,0-8.3,1.1-11,3.9l18.2,18.6c-4.3,2.3-9.3,3.5-14.6,3.5c-20.5,0-33.5-16.6-33.5-37.8
		c0-21.3,13-37.8,33.5-37.8s33.5,16.5,33.5,37.8C358.9,273.4,356.2,281.9,351.4,288.4 M462.3,285.5c0,0-45.6-59.9-48.7-63.9
		c-3-4-7.7-7-12.8-7h-10.7v98.5h16.4v-73.8c0,0,52,67.4,53.1,68.8c2.4,3.1,5.4,5,9.3,5h9.9v-98.5h-16.4L462.3,285.5L462.3,285.5z"/>
</g>
<linearGradient id="SVGID_5_" gradientUnits="userSpaceOnUse" x1="172.6498" y1="254.6818" x2="167.6777" y2="147.3693" gradientTransform="matrix(1 0 0 -1 0 530)">
	<stop  offset="0" style="stop-color:#1C8FC0"/>
	<stop  offset="9.693287e-02" style="stop-color:#146B9F"/>
	<stop  offset="0.2209" style="stop-color:#031A54"/>
	<stop  offset="1" style="stop-color:#001B58"/>
</linearGradient>
<path class="st3" d="M164.2,279.1L126,317.4c3.8,3.3,8.1,6.1,12.6,8.5l24.9-24.9v32.5c2.4,0.3,4.8,0.4,7.2,0.4s4.8-0.1,7.2-0.4V301
	l24.9,24.9c4.5-2.4,8.7-5.2,12.6-8.5l-38.2-38.2c-1.7-1.6-4-2.6-6.5-2.6C168.2,276.5,165.9,277.5,164.2,279.1"/>
<linearGradient id="SVGID_7_" gradientUnits="userSpaceOnUse" x1="162.6683" y1="265.4627" x2="10.6077" y2="264.2196" gradientTransform="matrix(1 0 0 -1 0 530)">
	<stop  offset="0" style="stop-color:#1C8FC0"/>
	<stop  offset="9.693287e-02" style="stop-color:#146B9F"/>
	<stop  offset="0.2209" style="stop-color:#031A54"/>
	<stop  offset="1" style="stop-color:#001B58"/>
</linearGradient>
<path class="st4" d="M109.6,232.7l25.3,25.3H102c-0.2,2.3-0.3,4.5-0.3,6.8c0,2.5,0.1,5.1,0.4,7.5h32.8l-25,25
	c2.4,4.5,5.3,8.7,8.6,12.5l38.2-38.2c1.6-1.7,2.6-4,2.6-6.5s-1-4.8-2.6-6.5L118.1,220C114.8,223.9,112,228.2,109.6,232.7"/>
<linearGradient id="SVGID_8_" gradientUnits="userSpaceOnUse" x1="171.7244" y1="264.95" x2="349.888" y2="264.95" gradientTransform="matrix(1 0 0 -1 0 530)">
	<stop  offset="0" style="stop-color:#1C8FC0"/>
	<stop  offset="9.693287e-02" style="stop-color:#146B9F"/>
	<stop  offset="0.2209" style="stop-color:#031A54"/>
	<stop  offset="1" style="stop-color:#001B58"/>
</linearGradient>
<path class="st5" d="M184.7,258.7c-1.6,1.7-2.6,4-2.6,6.5s1,4.8,2.6,6.5l38.2,38.2c3.3-3.8,6.2-8,8.6-12.5l-25-25h32.8
	c0.3-2.5,0.4-5,0.4-7.5c0-2.3-0.1-4.6-0.3-6.8h-32.9l25.3-25.3c-2.4-4.5-5.2-8.7-8.5-12.6L184.7,258.7z"/>
<linearGradient id="SVGID_9_" gradientUnits="userSpaceOnUse" x1="156.7224" y1="289.6292" x2="185.5736" y2="355.3456" gradientTransform="matrix(1 0 0 -1 0 530)">
	<stop  offset="0" style="stop-color:#870051"/>
	<stop  offset="5.000298e-02" style="stop-color:#870051"/>
	<stop  offset="6.200378e-02" style="stop-color:#80004A"/>
	<stop  offset="0.1548" style="stop-color:#510015"/>
	<stop  offset="0.2" style="stop-color:#3E0000"/>
	<stop  offset="1" style="stop-color:#3E0000"/>
</linearGradient>
<path class="st6" d="M162.2,196.1v32.1l-24.6-24.6c-4.4,2.3-8.4,5.1-12.1,8.3l37.3,37.3c1.6,1.5,3.9,2.5,6.3,2.5s4.6-1,6.3-2.5
	l37.3-37.3c-3.7-3.2-7.7-6-12.1-8.3l-24.6,24.6v-32.1c-2.3-0.2-4.6-0.4-7-0.4C166.9,195.8,164.6,195.9,162.2,196.1"/>
</svg>
