<?xml version="1.0" encoding="utf-8"?>
<!-- Generator: Adobe Illustrator 25.2.3, SVG Export Plug-In . SVG Version: 6.00 Build 0)  -->
<svg version="1.1" id="Layer_1" xmlns="http://www.w3.org/2000/svg" xmlns:xlink="http://www.w3.org/1999/xlink" x="0px" y="0px"
	 viewBox="0 0 2500 1661.5" style="enable-background:new 0 0 2500 1661.5;" xml:space="preserve">
<style type="text/css">
	.st0{fill-rule:evenodd;clip-rule:evenodd;fill:#FFFFFF;}
	.st1{fill-rule:evenodd;clip-rule:evenodd;fill:#1D5B99;}
	.st2{fill-rule:evenodd;clip-rule:evenodd;fill:#E7A83A;}
</style>
<g>
	<path class="st0" d="M0-419.4h2500v2500H0V-419.4z"/>
	<path class="st1" d="M36.8,71.5v1518.2h2426.5V71.5H36.8z"/>
	<path class="st0" d="M2434.9,99.8v1461.5H65.1V99.8H2434.9z"/>
	<rect x="125.8" y="160.7" class="st1" width="2243.5" height="1347"/>
	<path class="st1" d="M2359.4,1497.7v-1327H135.8v1327H2359.4L2359.4,1497.7z"/>
	<path class="st2" d="M744.3,972.4c235.7-101,566.5-192.6,1004.6-100.9l4.6-111.1c-462.2-50.5-793.9,96.7-1009.2,201V972.4z"/>
	<path class="st0" d="M318.7,1054h222.2v66.9h-138l-0.9,61.8h137.6v64.1h-138l0.5,61.8h136.1v66.9H318.8L318.7,1054L318.7,1054z
		 M596.7,1027.1h80.9l0.3,348.6H597L596.7,1027.1L596.7,1027.1z M955.7,1349.2c-27.4,23.2-69.2,34.9-106.4,34.9
		c-85,0-123.6-60.4-123.6-120.4c0-70.6,53-130.6,125.9-130.6c89.2,0,117.1,63.2,117.1,143.6H806.6c0,18.1,11.6,48.8,56.2,48.8
		c28.4,0,44.1-8.4,66-23.2L955.7,1349.2L955.7,1349.2z M896.2,1229.3c0-24.2-11.6-46-38.6-46c-25.6,0-45.1,22.8-50.2,46H896.2z
		 M1214.2,1359.9c-22.3,13.9-59,24.2-86,24.2c-74.4,0-127.8-42.8-127.8-119.9c0-79,53-131.1,132.9-131.1c27.9,0,61.3,8.8,79.5,20.4
		l-26,53c-12.1-5.1-25.1-9.3-38.1-9.3c-40.4,0-67.4,24.2-67.4,62.7c0,33.5,26,60,60.4,60c15.3,0,30.7-7,43.7-13.5L1214.2,1359.9
		L1214.2,1359.9z M1244,1141.4h36.5l-0.3-79.5h78.1l-1.9,79.5h66.5l-1.4,58.6h-66.4c0,32.5-2.3,66.9-2.3,86.9
		c0,20.4,5.1,30.2,23.3,30.2c11.1,0,20.4-5.6,29.7-11.1l17.7,54.8c-23.7,14.4-52.5,23.2-79.9,23.2c-65.5,0-68.8-41.4-68.8-95.3
		c0-28.8,2.3-57.6,2.3-88.8h-34.8L1244,1141.4L1244,1141.4z M1464.4,1141.4h80.9v33h0.9c12.1-20,27.9-39.5,59.5-39.5
		c8.8,0,18.1,0.9,26.5,2.8l-10.7,79.9c-7.9-2.3-16.7-4.7-28.8-4.7c-27,0-47.9,22.8-47.9,27.4l-1.4,135.2h-80.9L1464.4,1141.4
		L1464.4,1141.4z M1778.7,1133.1c86.4,0,131.1,54.8,131.1,125.5c0,70.6-44.6,125.5-131.1,125.5c-86.5,0-131.1-54.8-131.1-125.5
		C1647.6,1187.9,1692.2,1133.1,1778.7,1133.1L1778.7,1133.1z M1778.7,1322.7c38.6,0,50.2-33.5,50.2-64.1c0-30.7-11.6-64.1-50.2-64.1
		c-38.6,0-50.2,33.4-50.2,64.1C1728.5,1289.2,1740.1,1322.7,1778.7,1322.7z M1953.7,1141.4h80.9v25.6c18.6-18.1,46.9-33.9,75.8-33.9
		c49.7,0,76.7,27.4,76.7,91.6c0,47.9-0.5,99.5-0.9,151h-80.9c0.5-45.1,0.9-90.6,0.9-139c0-19.1-5.1-33.9-29.3-33.9
		c-13,0-31.6,11.1-42.3,21.4l-0.4,151.5h-82.3L1953.7,1141.4L1953.7,1141.4z M983.9,658.9L1086.1,322h91.2l-102.2,336.9H983.9z
		 M943.2,322.1l-82,142.8c-20.9,37.4-33.1,56.3-38.9,79.9H821c1.4-30-2.7-66.7-3.1-87.5l-9.1-135.2H655.4l-1.6,9.1
		c39.4,0,62.8,19.8,69.3,60.3l29.9,267.4h94.4l191-336.8H943.2z M1652.1,658.9l-2.5-50.1l-113.8-0.1l-23.3,50.2h-99L1593,322.7
		h121.5l30.4,336.2L1652.1,658.9L1652.1,658.9L1652.1,658.9z M1641.7,460.2c-1-24.9-1.9-58.7-0.2-79.2h-1.3
		c-5.6,16.7-29.4,66.9-39.9,91.6l-33.9,73.8h79.9L1641.7,460.2L1641.7,460.2z M1273,668.5c-64.3,0-107.1-20.4-137.6-38.6l43.4-66.3
		c27.4,15.3,48.9,33,98.3,33c15.9,0,31.2-4.1,39.9-19.2c12.7-21.9-2.9-33.7-38.5-53.9L1261,512c-52.8-36.1-75.7-70.3-50.8-130.1
		c15.9-38.2,57.8-67.3,127.1-67.3c47.7,0,92.5,20.6,118.5,40.8l-49.9,58.5c-25.5-20.6-46.5-31-70.7-31c-19.2,0-33.8,7.4-38.9,17.4
		c-9.5,18.8,3.1,31.6,30.8,48.9l20.9,13.3c64.1,40.4,79.3,82.8,63.3,122.4C1383.7,653.3,1329.6,668.5,1273,668.5L1273,668.5z"/>
</g>
</svg>
