<?xml version="1.0" encoding="utf-8"?>
<!-- Generator: Adobe Illustrator 25.2.3, SVG Export Plug-In . SVG Version: 6.00 Build 0)  -->
<svg version="1.1" id="Layer_1" xmlns="http://www.w3.org/2000/svg" xmlns:xlink="http://www.w3.org/1999/xlink" x="0px" y="0px"
	 viewBox="0 0 1162.6 1250" style="enable-background:new 0 0 1162.6 1250;" xml:space="preserve">
<style type="text/css">
	.st0{fill-rule:evenodd;clip-rule:evenodd;fill:#FFFFFF;}
	.st1{fill-rule:evenodd;clip-rule:evenodd;fill:#1D5B99;}
	.st2{fill-rule:evenodd;clip-rule:evenodd;fill:#E7A83A;}
</style>
<g>
	<path class="st0" d="M-1508.4,209.6h651.1v700h-651.1V209.6z"/>
	<path class="st1" d="M-1498.9,347v425.1H-867V347H-1498.9z"/>
	<path class="st0" d="M-874.4,355v409.2h-617.1V355H-874.4z"/>
	<path class="st1" d="M-894,746.4V374.8h-579.1v371.6H-894L-894,746.4z"/>
	<path class="st2" d="M-1314.6,599.3c61.4-28.3,147.5-53.9,261.6-28.3l1.2-31.1c-120.4-14.1-206.7,27.1-262.8,56.3V599.3z"/>
	<path class="st0" d="M-1425.4,622.1h57.9v18.7h-35.9l-0.2,17.3h35.8v18h-35.9l0.1,17.3h35.5v18.7h-57.1L-1425.4,622.1
		L-1425.4,622.1z M-1353.1,614.6h21.1l0.1,97.6h-21.1L-1353.1,614.6L-1353.1,614.6z M-1259.6,704.8c-7.1,6.5-18,9.8-27.7,9.8
		c-22.1,0-32.2-16.9-32.2-33.7c0-19.8,13.8-36.6,32.8-36.6c23.2,0,30.5,17.7,30.5,40.2h-42.2c0,5.1,3,13.7,14.6,13.7
		c7.4,0,11.5-2.3,17.2-6.5L-1259.6,704.8L-1259.6,704.8z M-1275,671.2c0-6.8-3-12.9-10-12.9c-6.7,0-11.7,6.4-13.1,12.9H-1275z
		 M-1192.3,707.8c-5.8,3.9-15.4,6.8-22.4,6.8c-19.4,0-33.3-12-33.3-33.6c0-22.1,13.8-36.7,34.6-36.7c7.3,0,16,2.5,20.7,5.7
		l-6.8,14.8c-3.1-1.4-6.5-2.6-9.9-2.6c-10.5,0-17.5,6.8-17.5,17.6c0,9.4,6.8,16.8,15.7,16.8c4,0,8-2,11.4-3.8L-1192.3,707.8
		L-1192.3,707.8z M-1184.5,646.6h9.5l-0.1-22.3h20.3l-0.5,22.3h17.3l-0.4,16.4h-17.3c0,9.1-0.6,18.7-0.6,24.3c0,5.7,1.3,8.5,6.1,8.5
		c2.9,0,5.3-1.6,7.7-3.1l4.6,15.4c-6.2,4-13.7,6.5-20.8,6.5c-17.1,0-17.9-11.6-17.9-26.7c0-8.1,0.6-16.1,0.6-24.9h-9.1
		L-1184.5,646.6L-1184.5,646.6z M-1127.1,646.6h21.1v9.2h0.2c3.1-5.6,7.3-11.1,15.5-11.1c2.3,0,4.7,0.3,6.9,0.8l-2.8,22.4
		c-2.1-0.7-4.4-1.3-7.5-1.3c-7,0-12.5,6.4-12.5,7.7l-0.4,37.9h-21.1L-1127.1,646.6L-1127.1,646.6z M-1045.2,644.3
		c22.5,0,34.1,15.4,34.1,35.1c0,19.8-11.6,35.1-34.1,35.1c-22.5,0-34.1-15.4-34.1-35.1C-1079.4,659.6-1067.8,644.3-1045.2,644.3
		L-1045.2,644.3z M-1045.2,697.4c10,0,13.1-9.4,13.1-18s-3-18-13.1-18c-10,0-13.1,9.4-13.1,18S-1055.3,697.4-1045.2,697.4z
		 M-999.7,646.6h21.1v7.2c4.8-5.1,12.2-9.5,19.7-9.5c12.9,0,20,7.7,20,25.6c0,13.4-0.1,27.8-0.2,42.3h-21.1
		c0.1-12.6,0.2-25.4,0.2-38.9c0-5.3-1.3-9.5-7.6-9.5c-3.4,0-8.2,3.1-11,6l-0.1,42.4h-21.4L-999.7,646.6L-999.7,646.6z
		 M-1252.2,511.5l26.6-94.3h23.7l-26.6,94.3H-1252.2z M-1262.8,417.2l-21.4,40c-5.4,10.5-8.6,15.8-10.1,22.4h-0.3
		c0.4-8.4-0.7-18.7-0.8-24.5l-2.4-37.9h-40l-0.4,2.5c10.3,0,16.4,5.5,18,16.9l7.8,74.9h24.6l49.7-94.3H-1262.8z M-1078.2,511.5
		l-0.7-14l-29.6,0l-6.1,14.1h-25.8l46.7-94.1h31.6l7.9,94.1L-1078.2,511.5L-1078.2,511.5L-1078.2,511.5z M-1080.9,455.9
		c-0.3-7-0.5-16.4,0-22.2h-0.4c-1.4,4.7-7.7,18.7-10.4,25.7l-8.8,20.7h20.8L-1080.9,455.9L-1080.9,455.9z M-1176.9,514.2
		c-16.8,0-27.9-5.7-35.8-10.8l11.3-18.6c7.1,4.3,12.7,9.2,25.6,9.2c4.2,0,8.1-1.2,10.4-5.4c3.3-6.1-0.8-9.4-10-15.1l-4.6-3.2
		c-13.8-10.1-19.7-19.7-13.2-36.4c4.1-10.7,15.1-18.8,33.1-18.8c12.4,0,24.1,5.8,30.9,11.4l-13,16.4c-6.6-5.8-12.1-8.7-18.4-8.7
		c-5,0-8.8,2.1-10.1,4.9c-2.5,5.3,0.8,8.9,8,13.7l5.4,3.7c16.7,11.3,20.7,23.2,16.5,34.3C-1148.1,509.9-1162.2,514.2-1176.9,514.2
		L-1176.9,514.2z"/>
</g>
</svg>
